<?xml version="1.0" encoding="UTF-8" standalone="no"?>
<!-- Created with Inkscape (http://www.inkscape.org/) -->

<svg
   version="1.1"
   id="svg303"
   xml:space="preserve"
   width="380.09805"
   height="283.62036"
   viewBox="0 0 380.09805 283.62036"
   xmlns="http://www.w3.org/2000/svg"
   xmlns:svg="http://www.w3.org/2000/svg"><defs
     id="defs307" /><g
     id="g309"
     transform="matrix(1.3333333,0,0,-1.3333333,-307.95552,668.88041)"><g
       id="g311"
       transform="translate(403.6626,346.6657)"><path
         d="M 0,0 -98.563,-36.464 V 70.881 Z M 96.409,131.683 V 6.458 L -114.602,158.167 V 102.17 l -58.484,42.059 V -40.322 l 16.038,-11.531 V 112.94 l 42.446,-30.524 V -59.498 L 33.84,-4.581 -98.563,90.636 v 36.246 l 211.01,-151.71 v 144.983 l -16.033,11.528 z"
         style="fill:#231f20;fill-opacity:1;fill-rule:nonzero;stroke:none"
         id="path313" /></g><path
       style="fill:#a0a0a0;stroke:none;stroke-width:1.3388"
       d="m 385.57506,577.85134 v -94.51389 l -9.65103,-7.04362 c -25.88219,-18.88964 -46.00767,-33.10243 -46.90554,-33.12511 -0.54795,-0.0138 -1.15041,49.00521 -1.3388,108.93123 l -0.34253,108.95638 -9.67206,-6.8727 -9.67206,-6.87272 -0.0342,-122.25687 -0.0343,-122.25688 4.35111,3.07039 c 2.3931,1.68872 19.71386,14.13414 38.49056,27.6565 l 34.13946,24.58611 0.6694,-36.86981 0.6694,-36.86981 139.58111,100.34303 c 76.7696,55.18867 139.87739,100.34303 140.23954,100.34303 0.36213,0 0.65843,-37.33576 0.65843,-82.96836 v -82.96837 l 10.71042,7.61592 10.71042,7.61592 v 95.43448 c 0,52.48897 -0.27626,95.43448 -0.61389,95.43448 -0.33765,0 -13.74241,-9.45118 -29.78835,-21.00263 -59.77369,-43.03096 -97.37914,-70.07763 -142.97266,-102.82908 -25.77194,-18.5129 -60.05084,-43.16073 -76.17531,-54.77293 -16.12447,-11.61221 -30.13169,-21.42565 -31.12715,-21.80764 -1.47923,-0.56764 -1.80992,3.69205 -1.80992,23.31377 0,23.20823 0.10038,24.09792 3.0123,26.6973 2.3065,2.05894 128.61241,93.02839 166.03524,119.58375 3.51068,2.49119 5.92053,4.96121 5.35521,5.48893 -0.56533,0.52772 -43.80259,16.76618 -96.08282,36.08546 -52.28023,19.31929 -95.80804,35.40985 -96.72847,35.7568 -1.32895,0.50095 -1.6735,-18.82805 -1.6735,-93.88306 z m 88.0379,40.61375 c 34.41755,-12.6862 63.17982,-23.62305 63.91616,-24.30412 0.8776,-0.81173 0.64701,-1.63281 -0.6694,-2.38347 -1.86063,-1.061 -48.25023,-34.37157 -104.76111,-75.22488 -13.06997,-9.44865 -24.36611,-17.17936 -25.10254,-17.17936 -0.87611,0 -1.33897,24.81387 -1.33897,71.78206 0,71.22659 0.0208,71.77664 2.68925,71.07883 1.47909,-0.3868 30.84907,-11.08288 65.26661,-23.76906 z"
       id="path352"
       transform="matrix(0.75000002,0,0,-0.75000002,0,792.00002)" /><path
       style="fill:#ffffff;stroke:none;stroke-width:1.3388"
       d="m 384.87029,578.36259 c 0,-51.91206 0.16628,-73.14881 0.36951,-47.19278 0.20323,25.95603 0.20323,68.42953 0,94.38556 -0.20323,25.95603 -0.36951,4.71928 -0.36951,-47.19278 z"
       id="path391"
       transform="matrix(0.75000002,0,0,-0.75000002,0,792.00002)" /><path
       style="fill:#ffffff;stroke-width:1.3388"
       d="m 386.46439,609.48975 c -0.48738,-33.68762 -0.88686,-76.1149 -0.88773,-94.28288 l -0.002,-33.03266 -27.23438,-19.51533 c -14.97891,-10.73342 -27.8342,-19.51532 -28.56732,-19.51532 -1.6638,0 -3.10072,71.79998 -3.10354,155.07793 -10e-4,33.38081 -0.47897,60.49156 -1.06185,60.2461 -0.58289,-0.24544 -4.49175,-2.85611 -8.68636,-5.80147 l -7.62656,-5.35521 -0.039,-87.02215 c -0.0214,-47.86218 -0.41773,-102.53552 -0.88063,-121.49631 -0.46289,-18.96078 -0.55736,-34.47416 -0.20995,-34.47416 0.34742,0 17.75609,12.32227 38.68594,27.38282 l 38.05426,27.38282 1.14014,-35.75033 c 0.62708,-19.66269 1.33711,-35.95832 1.57785,-36.21252 0.24075,-0.2542 45.51472,31.93894 100.60884,71.54032 129.99096,93.43686 174.42014,125.11953 176.66592,125.98131 1.52882,0.58667 1.82513,-12.70656 1.82513,-81.87845 v -82.57881 l 10.37572,7.3208 c 8.97331,6.33131 10.43937,7.92809 10.8466,11.81376 0.25898,2.47112 0.0364,44.9525 -0.49451,94.40306 l -0.9654,89.9101 -11.5547,-8.19704 c -6.3551,-4.50836 -63.96882,-45.88335 -128.03051,-91.94442 -135.94515,-97.74606 -137.8431,-99.09138 -139.79553,-99.09138 -2.1488,0 -1.85381,47.20671 0.31171,49.88207 1.7627,2.17769 28.33125,21.48239 110.03017,79.94787 58.2293,41.67014 61.53262,44.18597 59.92913,45.64275 -0.56201,0.51058 -9.45629,4.07822 -19.76506,7.92808 -31.0538,11.59718 -169.73561,62.93885 -170.00758,62.93885 -0.13918,0 -0.65182,-27.56259 -1.13919,-61.2502 z m 75.52861,13.98124 c 66.5262,-24.52248 75.53612,-28.13292 75.53612,-30.26874 0,-1.66536 -12.6514,-10.98099 -99.56431,-73.31234 -15.73429,-11.28416 -29.44028,-20.51665 -30.45776,-20.51665 -1.55107,0 -1.84995,11.59897 -1.84995,71.79327 v 71.79327 l 3.78791,-0.75758 c 2.08336,-0.41667 25.72995,-8.84573 52.54799,-18.73123 z"
       id="path467"
       transform="matrix(0.75000002,0,0,-0.75000002,0,792.00002)" /></g></svg>
